# xmcd
#
# Track frame offsets:
#	299
#	25390
#	45571
#	67124
#	90960
#	109570
#	130788
#	150441
#	167604
#	194676
#
# Disc length: 2832 seconds
#
# Revision: 2
# Processed by: cddbd v1.5.1PL0 Copyright (c) Steve Scherf et al.
# Submitted via: EasyCDDAExtractor 8.1.4.1
#
DISCID=7a0b0d0a
DTITLE=ANTONY SANTOS - VUELVE AMOR
DYEAR=2004
DGENRE=Other
TTITLE0=AY AY AY
TTITLE1=NO
TTITLE2=NO SEAS ASI
TTITLE3=AY AMOR
TTITLE4=CHOCOLATE HAY EN TU PECHO
TTITLE5=LA CAÑAGUATERA
TTITLE6=VUELVE AMOR
TTITLE7=QUE MAS ME PIDES
TTITLE8=A DIOS LE PIDO
TTITLE9=ESTABA ESCRITO
EXTD=
EXTT0=
EXTT1=
EXTT2=
EXTT3=
EXTT4=
EXTT5=
EXTT6=
EXTT7=
EXTT8=
EXTT9=
PLAYORDER=
